<svg xmlns="http://www.w3.org/2000/svg" xmlns:xlink="http://www.w3.org/1999/xlink" width="500" zoomAndPan="magnify" viewBox="0 0 375 374.999991" height="500" preserveAspectRatio="xMidYMid meet" version="1.0"><defs><clipPath id="id1"><path d="M 0 62.726562 L 375 62.726562 L 375 312.476562 L 0 312.476562 Z M 0 62.726562 " clip-rule="nonzero"/></clipPath></defs><g clip-path="url(#id1)"><path fill="rgb(21.569824%, 20.388794%, 20.388794%)" d="M 312.269531 281.257812 C 329.425781 281.257812 343.460938 267.210938 343.460938 250.039062 L 343.460938 93.945312 C 343.460938 76.777344 329.425781 62.726562 312.269531 62.726562 L 62.730469 62.726562 C 45.574219 62.726562 31.539062 76.777344 31.539062 93.945312 L 31.539062 250.039062 C 31.539062 267.210938 45.574219 281.257812 62.730469 281.257812 L 0.347656 281.257812 L 0.347656 312.476562 L 374.652344 312.476562 L 374.652344 281.257812 Z M 62.730469 93.945312 L 312.269531 93.945312 L 312.269531 250.039062 L 62.730469 250.039062 Z M 62.730469 93.945312 " fill-opacity="1" fill-rule="nonzero"/></g></svg>