<svg xmlns="http://www.w3.org/2000/svg" xmlns:xlink="http://www.w3.org/1999/xlink" width="500" zoomAndPan="magnify" viewBox="0 0 375 374.999991" height="500" preserveAspectRatio="xMidYMid meet" version="1.0"><defs><clipPath id="id1"><path d="M 50.039062 287 L 161 287 L 161 374.820312 L 50.039062 374.820312 Z M 50.039062 287 " clip-rule="nonzero"/></clipPath><clipPath id="id2"><path d="M 129 7.320312 L 331.289062 7.320312 L 331.289062 240 L 129 240 Z M 129 7.320312 " clip-rule="nonzero"/></clipPath></defs><g clip-path="url(#id1)"><path fill="rgb(21.569824%, 20.388794%, 20.388794%)" d="M 107.808594 287.878906 L 102.546875 287.878906 C 73.617188 287.878906 50.082031 311.414062 50.082031 340.347656 L 50.082031 369.644531 C 50.082031 369.984375 50.113281 370.324219 50.179688 370.65625 C 50.246094 370.988281 50.34375 371.3125 50.476562 371.628906 C 50.605469 371.941406 50.765625 372.242188 50.953125 372.523438 C 51.144531 372.808594 51.359375 373.070312 51.597656 373.308594 C 51.839844 373.550781 52.101562 373.765625 52.382812 373.953125 C 52.664062 374.140625 52.964844 374.300781 53.277344 374.433594 C 53.59375 374.5625 53.917969 374.660156 54.25 374.726562 C 54.585938 374.792969 54.921875 374.828125 55.261719 374.828125 L 155.097656 374.828125 C 155.4375 374.828125 155.773438 374.792969 156.109375 374.726562 C 156.441406 374.660156 156.765625 374.5625 157.082031 374.433594 C 157.394531 374.300781 157.691406 374.140625 157.976562 373.953125 C 158.257812 373.765625 158.519531 373.550781 158.761719 373.308594 C 159 373.070312 159.214844 372.808594 159.40625 372.523438 C 159.59375 372.242188 159.753906 371.941406 159.882812 371.628906 C 160.015625 371.3125 160.113281 370.988281 160.179688 370.65625 C 160.246094 370.324219 160.277344 369.984375 160.277344 369.644531 L 160.277344 340.347656 C 160.277344 311.417969 136.742188 287.878906 107.808594 287.878906 Z M 107.808594 287.878906 " fill-opacity="1" fill-rule="nonzero"/></g><path fill="rgb(21.569824%, 20.388794%, 20.388794%)" d="M 105.214844 281.804688 C 106.253906 281.804688 107.289062 281.753906 108.320312 281.652344 C 109.351562 281.550781 110.375 281.398438 111.390625 281.195312 C 112.410156 280.992188 113.414062 280.742188 114.40625 280.441406 C 115.398438 280.140625 116.375 279.789062 117.332031 279.394531 C 118.289062 278.996094 119.226562 278.554688 120.140625 278.066406 C 121.054688 277.578125 121.941406 277.042969 122.804688 276.46875 C 123.667969 275.890625 124.5 275.273438 125.300781 274.617188 C 126.101562 273.960938 126.867188 273.265625 127.601562 272.53125 C 128.335938 271.796875 129.03125 271.03125 129.6875 270.230469 C 130.347656 269.425781 130.960938 268.59375 131.539062 267.734375 C 132.113281 266.871094 132.648438 265.984375 133.136719 265.066406 C 133.625 264.152344 134.066406 263.21875 134.464844 262.257812 C 134.859375 261.300781 135.210938 260.328125 135.511719 259.335938 C 135.8125 258.34375 136.0625 257.335938 136.265625 256.320312 C 136.46875 255.304688 136.621094 254.277344 136.722656 253.246094 C 136.824219 252.214844 136.875 251.179688 136.875 250.144531 C 136.875 249.105469 136.824219 248.074219 136.722656 247.039062 C 136.621094 246.007812 136.46875 244.984375 136.265625 243.96875 C 136.0625 242.949219 135.8125 241.945312 135.511719 240.953125 C 135.210938 239.960938 134.859375 238.984375 134.464844 238.027344 C 134.066406 237.070312 133.625 236.132812 133.136719 235.21875 C 132.648438 234.304688 132.113281 233.417969 131.539062 232.554688 C 130.960938 231.691406 130.347656 230.859375 129.6875 230.058594 C 129.03125 229.257812 128.335938 228.488281 127.601562 227.757812 C 126.867188 227.023438 126.101562 226.328125 125.300781 225.671875 C 124.5 225.011719 123.667969 224.394531 122.804688 223.820312 C 121.941406 223.242188 121.054688 222.710938 120.140625 222.222656 C 119.226562 221.734375 118.289062 221.289062 117.332031 220.894531 C 116.375 220.496094 115.398438 220.148438 114.40625 219.847656 C 113.414062 219.546875 112.410156 219.292969 111.390625 219.09375 C 110.375 218.890625 109.351562 218.738281 108.320312 218.636719 C 107.289062 218.535156 106.253906 218.484375 105.214844 218.484375 C 104.179688 218.484375 103.144531 218.535156 102.113281 218.636719 C 101.082031 218.738281 100.058594 218.890625 99.039062 219.09375 C 98.023438 219.292969 97.019531 219.546875 96.027344 219.847656 C 95.035156 220.148438 94.058594 220.496094 93.101562 220.894531 C 92.144531 221.289062 91.207031 221.734375 90.292969 222.222656 C 89.378906 222.710938 88.488281 223.242188 87.628906 223.820312 C 86.765625 224.394531 85.933594 225.011719 85.132812 225.671875 C 84.332031 226.328125 83.5625 227.023438 82.832031 227.757812 C 82.097656 228.488281 81.402344 229.257812 80.746094 230.058594 C 80.085938 230.859375 79.46875 231.691406 78.894531 232.554688 C 78.316406 233.417969 77.785156 234.304688 77.296875 235.21875 C 76.808594 236.132812 76.363281 237.070312 75.96875 238.027344 C 75.570312 238.984375 75.222656 239.960938 74.921875 240.953125 C 74.621094 241.945312 74.367188 242.949219 74.167969 243.96875 C 73.964844 244.984375 73.8125 246.007812 73.710938 247.039062 C 73.609375 248.074219 73.558594 249.105469 73.558594 250.144531 C 73.558594 251.179688 73.613281 252.214844 73.714844 253.246094 C 73.816406 254.277344 73.96875 255.300781 74.171875 256.316406 C 74.375 257.335938 74.628906 258.339844 74.929688 259.332031 C 75.230469 260.320312 75.582031 261.296875 75.976562 262.253906 C 76.375 263.210938 76.816406 264.148438 77.308594 265.0625 C 77.796875 265.976562 78.328125 266.863281 78.90625 267.726562 C 79.480469 268.585938 80.097656 269.417969 80.753906 270.21875 C 81.414062 271.019531 82.109375 271.789062 82.839844 272.519531 C 83.574219 273.253906 84.339844 273.949219 85.140625 274.605469 C 85.945312 275.265625 86.773438 275.882812 87.636719 276.457031 C 88.5 277.035156 89.386719 277.566406 90.300781 278.054688 C 91.214844 278.542969 92.148438 278.988281 93.105469 279.382812 C 94.0625 279.78125 95.039062 280.132812 96.03125 280.433594 C 97.023438 280.734375 98.027344 280.988281 99.042969 281.191406 C 100.058594 281.394531 101.082031 281.546875 102.113281 281.648438 C 103.144531 281.75 104.179688 281.800781 105.214844 281.804688 Z M 105.214844 281.804688 " fill-opacity="1" fill-rule="nonzero"/><g clip-path="url(#id2)"><path fill="rgb(21.569824%, 20.388794%, 20.388794%)" d="M 292.1875 7.324219 L 168.640625 7.324219 C 167.359375 7.324219 166.085938 7.386719 164.8125 7.515625 C 163.539062 7.640625 162.273438 7.828125 161.019531 8.082031 C 159.765625 8.332031 158.527344 8.644531 157.304688 9.015625 C 156.078125 9.386719 154.875 9.820312 153.695312 10.308594 C 152.511719 10.800781 151.359375 11.347656 150.230469 11.949219 C 149.101562 12.554688 148.003906 13.210938 146.941406 13.921875 C 145.878906 14.632812 144.851562 15.394531 143.863281 16.207031 C 142.875 17.019531 141.929688 17.875 141.023438 18.78125 C 140.117188 19.6875 139.261719 20.632812 138.449219 21.621094 C 137.636719 22.609375 136.875 23.636719 136.164062 24.699219 C 135.453125 25.765625 134.796875 26.859375 134.191406 27.988281 C 133.589844 29.117188 133.042969 30.269531 132.550781 31.453125 C 132.0625 32.632812 131.628906 33.835938 131.257812 35.0625 C 130.886719 36.285156 130.574219 37.523438 130.324219 38.78125 C 130.074219 40.035156 129.882812 41.296875 129.757812 42.570312 C 129.632812 43.84375 129.566406 45.121094 129.566406 46.398438 L 129.566406 162.902344 C 129.566406 164.183594 129.632812 165.457031 129.757812 166.730469 C 129.882812 168.003906 130.074219 169.269531 130.324219 170.523438 C 130.574219 171.777344 130.886719 173.015625 131.257812 174.242188 C 131.628906 175.464844 132.0625 176.667969 132.550781 177.851562 C 133.042969 179.03125 133.589844 180.1875 134.191406 181.316406 C 134.796875 182.441406 135.453125 183.539062 136.164062 184.601562 C 136.875 185.667969 137.636719 186.691406 138.449219 187.679688 C 139.261719 188.671875 140.117188 189.617188 141.023438 190.523438 C 141.929688 191.425781 142.875 192.285156 143.863281 193.097656 C 144.851562 193.910156 145.878906 194.667969 146.941406 195.382812 C 148.003906 196.09375 149.101562 196.75 150.230469 197.351562 C 151.359375 197.957031 152.511719 198.503906 153.695312 198.992188 C 154.875 199.484375 156.078125 199.914062 157.300781 200.289062 C 158.527344 200.660156 159.765625 200.972656 161.019531 201.222656 C 162.273438 201.472656 163.539062 201.660156 164.8125 201.789062 C 166.085938 201.914062 167.359375 201.980469 168.640625 201.980469 L 195.601562 201.980469 L 183.285156 232.503906 C 183.078125 233.019531 182.957031 233.554688 182.917969 234.109375 C 182.882812 234.667969 182.9375 235.210938 183.074219 235.75 C 183.214844 236.289062 183.4375 236.792969 183.738281 237.257812 C 184.042969 237.726562 184.410156 238.132812 184.84375 238.480469 C 185.273438 238.828125 185.753906 239.101562 186.273438 239.296875 C 186.792969 239.492188 187.332031 239.601562 187.886719 239.621094 C 188.441406 239.644531 188.988281 239.578125 189.523438 239.421875 C 190.054688 239.269531 190.554688 239.035156 191.011719 238.722656 L 244.785156 201.980469 L 292.1875 201.980469 C 293.46875 201.980469 294.742188 201.914062 296.015625 201.789062 C 297.289062 201.664062 298.554688 201.472656 299.808594 201.222656 C 301.0625 200.972656 302.300781 200.660156 303.527344 200.289062 C 304.75 199.917969 305.953125 199.484375 307.136719 198.996094 C 308.316406 198.503906 309.472656 197.957031 310.597656 197.355469 C 311.726562 196.75 312.824219 196.09375 313.886719 195.382812 C 314.949219 194.671875 315.976562 193.910156 316.964844 193.097656 C 317.953125 192.285156 318.902344 191.425781 319.804688 190.523438 C 320.710938 189.617188 321.570312 188.671875 322.378906 187.683594 C 323.191406 186.691406 323.953125 185.667969 324.664062 184.601562 C 325.375 183.539062 326.03125 182.445312 326.636719 181.316406 C 327.238281 180.1875 327.785156 179.03125 328.277344 177.851562 C 328.765625 176.667969 329.199219 175.464844 329.570312 174.242188 C 329.941406 173.019531 330.253906 171.777344 330.503906 170.523438 C 330.757812 169.269531 330.945312 168.003906 331.070312 166.734375 C 331.199219 165.460938 331.261719 164.183594 331.261719 162.902344 L 331.261719 46.402344 C 331.261719 45.121094 331.199219 43.84375 331.070312 42.570312 C 330.945312 41.300781 330.757812 40.035156 330.503906 38.78125 C 330.253906 37.527344 329.945312 36.285156 329.570312 35.0625 C 329.199219 33.839844 328.769531 32.636719 328.277344 31.453125 C 327.789062 30.273438 327.238281 29.117188 326.636719 27.988281 C 326.03125 26.859375 325.375 25.765625 324.664062 24.699219 C 323.953125 23.636719 323.191406 22.609375 322.378906 21.621094 C 321.570312 20.632812 320.710938 19.6875 319.804688 18.78125 C 318.902344 17.875 317.953125 17.019531 316.964844 16.207031 C 315.976562 15.394531 314.949219 14.632812 313.886719 13.921875 C 312.824219 13.210938 311.726562 12.554688 310.601562 11.949219 C 309.472656 11.347656 308.316406 10.800781 307.136719 10.308594 C 305.953125 9.820312 304.75 9.386719 303.527344 9.015625 C 302.300781 8.644531 301.0625 8.332031 299.808594 8.082031 C 298.554688 7.828125 297.289062 7.640625 296.015625 7.515625 C 294.742188 7.386719 293.46875 7.324219 292.1875 7.324219 Z M 228.410156 178.769531 C 227.039062 178.78125 225.683594 178.65625 224.339844 178.386719 C 223 178.121094 221.699219 177.71875 220.4375 177.179688 C 219.179688 176.644531 217.992188 175.980469 216.871094 175.195312 C 215.75 174.410156 214.71875 173.515625 213.785156 172.519531 C 211.992188 170.558594 210.621094 168.339844 209.671875 165.859375 C 208.722656 163.378906 208.265625 160.8125 208.292969 158.15625 C 208.292969 146.3125 217.011719 137.378906 228.574219 137.378906 C 240.039062 137.378906 248.6875 146.3125 248.6875 158.15625 C 248.6875 169.910156 239.96875 178.769531 228.410156 178.769531 Z M 252.367188 97.792969 L 252.351562 97.8125 C 246.152344 105.140625 245.074219 109.90625 245.363281 114.8125 C 245.367188 114.882812 245.371094 114.953125 245.371094 115.023438 C 245.390625 115.511719 245.386719 115.996094 245.355469 116.480469 C 245.324219 116.96875 245.269531 117.449219 245.191406 117.929688 C 245.113281 118.410156 245.011719 118.886719 244.882812 119.355469 C 244.757812 119.824219 244.609375 120.289062 244.433594 120.742188 C 244.261719 121.195312 244.066406 121.640625 243.847656 122.078125 C 243.628906 122.511719 243.390625 122.933594 243.128906 123.34375 C 242.871094 123.757812 242.589844 124.152344 242.289062 124.535156 C 241.988281 124.917969 241.667969 125.285156 241.332031 125.636719 C 240.996094 125.988281 240.640625 126.320312 240.269531 126.632812 C 239.898438 126.949219 239.511719 127.246094 239.113281 127.519531 C 238.710938 127.796875 238.296875 128.050781 237.871094 128.285156 C 237.445312 128.523438 237.007812 128.734375 236.5625 128.925781 C 236.113281 129.113281 235.65625 129.28125 235.191406 129.425781 C 234.730469 129.570312 234.257812 129.691406 233.78125 129.789062 C 233.304688 129.886719 232.824219 129.960938 232.339844 130.007812 C 231.855469 130.058594 231.371094 130.082031 230.882812 130.082031 L 226.125 130.082031 C 225.21875 130.082031 224.320312 130 223.429688 129.832031 C 222.542969 129.664062 221.675781 129.414062 220.832031 129.082031 C 219.988281 128.753906 219.183594 128.347656 218.417969 127.867188 C 217.652344 127.382812 216.9375 126.835938 216.269531 126.222656 C 215.605469 125.605469 215.003906 124.933594 214.46875 124.207031 C 213.929688 123.480469 213.460938 122.707031 213.070312 121.894531 C 212.675781 121.078125 212.359375 120.234375 212.125 119.359375 C 211.886719 118.484375 211.734375 117.597656 211.667969 116.695312 L 211.640625 116.378906 C 210.34375 104.160156 214.699219 91.648438 224.25 80.1875 L 224.3125 80.113281 C 230.953125 72.292969 233.421875 67.972656 233.421875 64.167969 C 233.421875 63.417969 233.332031 62.070312 232.71875 61.492188 C 232.148438 60.953125 230.613281 60.367188 227.996094 60.3125 C 225.34375 60.351562 222.789062 60.867188 220.335938 61.863281 C 218.402344 62.660156 216.394531 63.058594 214.304688 63.054688 C 213.402344 63.054688 212.507812 62.976562 211.617188 62.824219 C 210.730469 62.671875 209.859375 62.445312 209.011719 62.144531 C 208.160156 61.847656 207.339844 61.476562 206.554688 61.035156 C 205.765625 60.597656 205.019531 60.09375 204.316406 59.53125 C 203.617188 58.964844 202.964844 58.34375 202.367188 57.667969 C 201.773438 56.992188 201.234375 56.269531 200.761719 55.503906 C 200.285156 54.734375 199.878906 53.933594 199.542969 53.097656 C 199.203125 52.261719 198.9375 51.40625 198.742188 50.523438 C 198.550781 49.644531 198.433594 48.75 198.390625 47.851562 C 198.351562 46.949219 198.382812 46.050781 198.496094 45.15625 C 198.605469 44.261719 198.789062 43.382812 199.050781 42.519531 C 199.308594 41.65625 199.640625 40.820312 200.042969 40.011719 C 200.445312 39.203125 200.910156 38.4375 201.441406 37.707031 C 201.972656 36.980469 202.5625 36.300781 203.210938 35.671875 C 203.855469 35.046875 204.550781 34.476562 205.296875 33.964844 C 206.039062 33.457031 206.820312 33.011719 207.640625 32.632812 C 214.488281 29.488281 223.019531 27.6875 231.050781 27.6875 C 245.710938 27.6875 254.5 33.371094 259.292969 38.144531 C 265.566406 44.386719 269.019531 52.984375 269.019531 62.351562 C 269.023438 78.015625 259.789062 88.980469 252.367188 97.792969 Z M 252.367188 97.792969 " fill-opacity="1" fill-rule="nonzero"/></g><path fill="rgb(21.569824%, 20.388794%, 20.388794%)" d="M 231.054688 38.046875 C 224.394531 38.046875 217.355469 39.574219 211.964844 42.050781 C 211.390625 42.316406 210.875 42.671875 210.421875 43.117188 C 209.964844 43.5625 209.597656 44.066406 209.316406 44.636719 C 209.035156 45.207031 208.855469 45.804688 208.777344 46.4375 C 208.703125 47.066406 208.730469 47.691406 208.867188 48.3125 C 209.003906 48.933594 209.242188 49.511719 209.574219 50.050781 C 209.910156 50.589844 210.324219 51.0625 210.820312 51.460938 C 211.3125 51.859375 211.859375 52.164062 212.457031 52.375 C 213.058594 52.585938 213.671875 52.691406 214.308594 52.695312 C 215.03125 52.695312 215.730469 52.554688 216.398438 52.28125 C 220.144531 50.757812 224.035156 49.980469 228.078125 49.949219 C 238.492188 50.117188 243.78125 55.738281 243.78125 64.167969 C 243.78125 71.605469 239.648438 78.054688 232.210938 86.820312 C 223.945312 96.738281 220.96875 106.492188 221.960938 115.421875 L 221.996094 115.898438 C 222.039062 116.417969 222.171875 116.914062 222.398438 117.382812 C 222.625 117.851562 222.929688 118.261719 223.3125 118.617188 C 223.695312 118.972656 224.128906 119.242188 224.613281 119.433594 C 225.101562 119.625 225.601562 119.71875 226.125 119.71875 L 230.886719 119.71875 C 231.164062 119.71875 231.441406 119.691406 231.710938 119.636719 C 231.984375 119.582031 232.25 119.5 232.507812 119.390625 C 232.761719 119.28125 233.003906 119.148438 233.234375 118.988281 C 233.464844 118.832031 233.675781 118.652344 233.867188 118.449219 C 234.0625 118.25 234.230469 118.03125 234.382812 117.796875 C 234.53125 117.5625 234.65625 117.3125 234.753906 117.054688 C 234.851562 116.792969 234.925781 116.527344 234.96875 116.25 C 235.015625 115.976562 235.03125 115.699219 235.019531 115.421875 C 234.527344 106.988281 237.171875 99.714844 244.445312 91.117188 C 252.378906 81.695312 258.660156 73.59375 258.660156 62.351562 C 258.660156 49.785156 250.066406 38.046875 231.054688 38.046875 Z M 231.054688 38.046875 " fill-opacity="1" fill-rule="nonzero"/><path fill="rgb(21.569824%, 20.388794%, 20.388794%)" d="M 228.574219 147.742188 C 222.789062 147.742188 218.65625 152.039062 218.65625 158.15625 C 218.65625 163.945312 222.625 168.40625 228.410156 168.40625 C 234.527344 168.40625 238.328125 163.945312 238.328125 158.15625 C 238.328125 152.039062 234.359375 147.742188 228.574219 147.742188 Z M 228.574219 147.742188 " fill-opacity="1" fill-rule="nonzero"/></svg>